<svg version="1.1" xmlns="http://www.w3.org/2000/svg" xmlns:xlink="http://www.w3.org/1999/xlink" viewBox="0 0 192 192"><g fill="none" fill-rule="nonzero" stroke="none" stroke-width="1" stroke-linecap="butt" stroke-linejoin="miter" stroke-miterlimit="10" stroke-dasharray="" stroke-dashoffset="0" font-family="none" font-weight="none" font-size="none" text-anchor="none" style="mix-blend-mode: normal"><path d="M0,192v-192h192v192z" fill="none" stroke="none"></path><g stroke="none"><g id="surface1"><path d="M96,90h-36l-39,22.59375c-11.13281,6.42188 -18,18.30469 -18,31.17188v21.23438c0,3.31641 2.68359,6 6,6h89.48438l24.90234,-33l11.61328,-25.40625z" fill="#c2cde7"></path><path d="M108.63281,113.57813l-30.8086,15.42188l-30.84375,-15.42187c-2.57812,-1.28906 -4.38281,-3.75 -4.85156,-6.59766c-0.45703,-2.85937 0.46875,-5.7539 2.50781,-7.80469l0.1875,-0.17578h66l0.17578,0.17578c2.03906,2.05078 2.96484,4.95703 2.49609,7.80469c-0.46875,2.85938 -2.27344,5.3086 -4.86328,6.59766z" fill="#d6dff2"></path><path d="M39.21094,72.38672c-0.92578,0 -3.92578,-2.46094 -5.4961,-8.30859c-1.55859,-5.84766 -0.14062,-9.80859 0.57422,-9.98437c0,0 5.69531,-0.99609 5.76563,-2.13281c0.07031,-1.64062 0.24609,-3.26953 0.53906,-4.88672c0.16406,-1.73437 0.08203,-3.48047 -0.24609,-5.1914c-0.78516,-5.40235 -0.92578,-10.88672 -0.38672,-16.32422c1.01953,-10.13672 6.96094,-16.17187 15.92578,-16.17187c0.67969,0 1.34766,-0.22265 1.89844,-0.62109c6.07031,-3.77344 13.06641,-5.76562 20.21484,-5.76562h3.17578c19.26563,0 33,9.84375 38.85938,27.21094c-2.19141,-0.2461 -1.47656,1.28906 -3,2.78906c-1.53516,1.5 -5.34375,2.09766 -3.90234,6c1.73438,4.10156 2.7539,8.48438 3,12.92578c0,1.14844 5.69531,-0.86719 5.7539,-0.86719c0.78516,0.26953 2.16797,7.11328 0.57422,12.9961c-1.59375,5.87109 -4.5586,8.30859 -5.4961,8.30859c-1.37109,0.04688 -2.57812,0.96094 -3,2.27344c-5.33203,18 -19.3125,36.15235 -35.7539,36.15235c-16.44141,0 -30.63281,-18.17578 -35.97656,-36.15235c-0.39844,-1.32422 -1.62891,-2.23828 -3.02344,-2.25z" fill="#faefde"></path><path d="M40.34766,42c8.96484,-0.60937 16.69922,-6.51562 19.65234,-15c9,3 12,12 54,9c4.17188,-0.30469 4.80469,1.17188 6,0c1.19531,-1.17187 -2.15625,-6 0,-5.78906c-5.67187,-17.36719 -19.59375,-27.21094 -38.82422,-27.21094h-3.17578c-7.14844,-0.02344 -14.16797,1.94531 -20.25,5.69531c-0.55078,0.41015 -1.20703,0.63281 -1.88672,0.63281c-9,0 -15,6 -15.9375,16.17188c-0.52734,5.4375 -0.39844,10.91016 0.39844,16.32422z" fill="#cda1a7"></path><path d="M53.73047,39c-1.10156,0 -2.10937,-0.60937 -2.625,-1.58203c-0.52734,-0.97265 -0.46875,-2.14453 0.12891,-3.07031l4.80469,-7.34766c1.66406,-2.53125 4.93359,-3.42187 7.65234,-2.09766l4.67578,2.27344c7.78125,3.80859 16.3125,5.78906 24.96094,5.82422h7.65234c1.65235,0 3,1.34766 3,3c0,1.65234 -1.34765,3 -3,3h-7.65234c-9.5625,-0.01172 -18.99609,-2.17969 -27.59766,-6.36328l-4.67578,-2.27344l-4.80469,7.28906c-0.5625,0.84375 -1.5,1.34766 -2.51953,1.34766z" fill="#8d6c9f"></path><path d="M186.53906,126.65625l-34.46485,-34.46484c-1.96875,-1.98047 -5.03906,-2.34375 -7.41797,-0.86719l-29.75391,18.59766c-2.77734,1.73438 -3.64453,5.37891 -1.95703,8.19141l10.28906,17.19141c0.71484,1.17188 0.52734,2.68359 -0.44531,3.65625l-34.92187,35.03906c-0.5625,0.5625 -0.86719,1.33594 -0.86719,2.13281v9.86719c0,1.65234 1.34766,3 3,3h13.80469l3,-2.57812l0.59765,-4.26562c0.09375,-0.76172 0.70313,-1.35937 1.46485,-1.46484l5.82422,-0.69141c0.75,-0.11719 1.34766,-0.71484 1.46484,-1.46484l0.78516,-6c0.09375,-0.76172 0.67969,-1.35937 1.44141,-1.47656l6.80859,-1.07812c0.35156,-0.07031 0.69141,-0.23437 0.96094,-0.48047l13.61719,-13.5c0.97266,-0.97266 2.48438,-1.16016 3.65625,-0.44531l17.19141,10.3125c2.8125,1.69922 6.45703,0.83203 8.1914,-1.94531l18.57422,-29.76562c1.52344,-2.37891 1.17188,-5.50781 -0.84375,-7.5zM169.46484,132.30469l-3.62109,5.69531l-15.36328,-9.86719l-9.86719,-15.36328l5.78906,-3.63281z" fill="#f9e3ae"></path><path d="M187.38281,134.07422l-18.57422,29.75391c-1.73437,2.77734 -5.3789,3.64453 -8.1914,1.95703l-17.19141,-10.32422c-1.17187,-0.70312 -2.68359,-0.52735 -3.65625,0.44531l-13.61719,13.65234c-0.26953,0.2461 -0.60937,0.41016 -0.96094,0.48047l-6.80859,0.96094c-0.76172,0.11719 -1.34766,0.71484 -1.44141,1.46484l-0.78516,6c-0.11719,0.76172 -0.71484,1.35938 -1.46484,1.47656l-5.84766,0.77344c-0.77344,0.10547 -1.37109,0.71485 -1.47656,1.47656l-0.59766,4.25391l-3,2.58984h-13.76953c-0.77344,0 -1.51172,-0.29297 -2.07422,-0.82031l62.30859,-60.29297l0.24609,0.36328l15.36328,9.71484l3.62109,-5.82422l-11.69531,-11.69531l11.55469,-11.15625l17.21485,17.21485c2.02734,1.99219 2.3789,5.14453 0.84375,7.53515z" fill="#f6d397"></path><path d="M93,150c-1.65234,0 -3,1.34766 -3,3v6c0,1.65234 1.34766,3 3,3c1.65234,0 3,-1.34766 3,-3v-6c0,-1.65234 -1.34766,-3 -3,-3z" fill="#8d6c9f"></path><path d="M78,150c-1.65234,0 -3,1.34766 -3,3v6c0,1.65234 1.34766,3 3,3c1.65234,0 3,-1.34766 3,-3v-6c0,-1.65234 -1.34766,-3 -3,-3z" fill="#8d6c9f"></path><path d="M63,150c-1.65234,0 -3,1.34766 -3,3v6c0,1.65234 1.34766,3 3,3c1.65234,0 3,-1.34766 3,-3v-6c0,-1.65234 -1.34766,-3 -3,-3z" fill="#8d6c9f"></path><path d="M48,150c-1.65234,0 -3,1.34766 -3,3v6c0,1.65234 1.34766,3 3,3c1.65234,0 3,-1.34766 3,-3v-6c0,-1.65234 -1.34766,-3 -3,-3z" fill="#8d6c9f"></path><path d="M33,150c-1.65234,0 -3,1.34766 -3,3v6c0,1.65234 1.34766,3 3,3c1.65234,0 3,-1.34766 3,-3v-6c0,-1.65234 -1.34766,-3 -3,-3z" fill="#8d6c9f"></path><path d="M18,150c-1.65234,0 -3,1.34766 -3,3v6c0,1.65234 1.34766,3 3,3c1.65234,0 3,-1.34766 3,-3v-6c0,-1.65234 -1.34766,-3 -3,-3z" fill="#8d6c9f"></path><path d="M100.65234,114.32813l-22.65234,11.30859l-22.65234,-11.33203c-1.46484,-0.67969 -3.21094,-0.07031 -3.9375,1.38281c-0.71484,1.45313 -0.16406,3.21094 1.26563,3.98438l24,12c0.84375,0.41016 1.82813,0.41016 2.67188,0l24,-12c0.99609,-0.45703 1.66406,-1.41797 1.74609,-2.50781c0.07031,-1.08985 -0.44531,-2.14453 -1.35937,-2.74219c-0.92578,-0.58594 -2.08594,-0.64453 -3.05859,-0.11719z" fill="#8d6c9f"></path><path d="M188.67188,124.53516l-34.47656,-34.53516c-2.96485,-2.95312 -7.57031,-3.48047 -11.1211,-1.26562l-20.78906,12.96094l-13.41797,-7.76953c3.45703,-5.17969 6.1875,-10.81641 8.13281,-16.73437c3.69141,-1.38281 7.05469,-6 8.67188,-12c0.5625,-2.08594 0.85547,-4.23047 0.86719,-6.38672c0,-5.37891 -2.07422,-9.48047 -5.69531,-10.44141c-0.42187,-0.11719 -0.85547,-0.17578 -1.28906,-0.1875c-0.51562,-3.52734 -1.44141,-6.99609 -2.76562,-10.3125v-0.32812c1.41797,0.17578 2.8125,0.53906 4.13672,1.07813c1.00781,0.39844 2.15625,0.22266 3,-0.45703c0.89063,-0.71484 1.27734,-1.88672 1.01953,-3c-4.94531,-21.92578 -21.26953,-35.15625 -43.94531,-35.15625h-3c-7.71094,0.03516 -15.28125,2.09766 -21.92578,6c-11.07422,0.42188 -18.80859,8.28516 -20.07422,20.69531c-0.55078,5.60156 -0.41016,11.23828 0.42188,16.80469c0.15234,0.99609 0.24609,1.99219 0.26953,3l-0.26953,1.71094c-0.43359,0.01172 -0.86719,0.07031 -1.28906,0.17578c-2.96485,1.01953 -5.0625,3.66797 -5.36719,6.78516c-0.57422,3.35156 -0.38672,6.78516 0.53906,10.04297c1.61719,6 4.98047,10.47656 8.66015,12c1.95703,5.95313 4.69922,11.60156 8.16797,16.80469l-27.66797,15.99609c-12.04687,6.96094 -19.46484,19.82813 -19.46484,33.75v21.23438c0,4.96875 4.03125,9 9,9h75.36328c-0.24609,0.64453 -0.36328,1.32422 -0.36328,2.01563v9.98438c0,3.31641 2.68359,6 6,6h13.80469c0.71484,0 1.40625,-0.25781 1.94531,-0.71484l3,-2.58984c0.55078,-0.46875 0.91406,-1.13672 1.01953,-1.85156l0.48047,-3.30469l4.82813,-0.53906c2.09766,-0.30469 3.75,-1.94531 4.05469,-4.05469l0.65625,-4.94531l6,-0.92578c0.97265,-0.16406 1.875,-0.62109 2.57813,-1.32422l13.65234,-13.65234l16.98047,10.26563c4.21875,2.49609 9.65625,1.16016 12.23438,-3l18.60938,-29.76562c2.21484,-3.55078 1.69922,-8.16797 -1.26562,-11.13281zM44.19141,73.80469c-0.38672,-1.32422 -1.62891,-2.21485 -3,-2.16797c-0.90234,0 -3.72656,-2.33203 -5.22656,-7.85156c-0.66797,-2.37891 -0.82031,-4.86328 -0.44531,-7.30078c0.36328,-1.67578 0.92578,-2.15625 0.99609,-2.17969c0.29297,0.05859 0.58594,0.17578 0.83203,0.35156c0.90234,0.59766 2.03906,0.66797 3,0.1875c0.96094,-0.50391 1.58203,-1.47656 1.61719,-2.55469c0.07031,-1.54687 0.23438,-3.09375 0.51563,-4.61719c0.14063,-1.64062 0.0586,-3.30469 -0.24609,-4.92187c-0.70312,-5.12109 -0.78516,-10.3125 -0.23437,-15.44531c0.92578,-9.57422 6.57422,-15.30469 15,-15.30469c0.64453,0 1.27734,-0.21094 1.80469,-0.59766c5.7539,-3.57422 12.41015,-5.44922 19.19531,-5.40234h3c18.21094,0 31.34766,9.30469 36.75,25.73438c-2.01562,-0.36328 -4.10156,0.16406 -5.69531,1.44141c-1.72266,1.88672 -2.0625,4.66406 -0.84375,6.90234c1.58203,3.89063 2.49609,8.01563 2.69531,12.21094c0.04688,1.07813 0.66797,2.05078 1.62891,2.55469c0.94922,0.48047 2.09766,0.41016 3,-0.1875c0.24609,-0.15234 0.51563,-0.26953 0.80859,-0.35156c0.71484,0.35156 1.98047,4.01953 0.53906,9.48047c-0.53906,2.16797 -1.5,4.20703 -2.84766,6c-0.99609,1.25391 -1.92187,1.85156 -2.37891,1.85156c-1.37109,-0.04687 -2.61328,0.84375 -3,2.16797c-1.81641,6.10547 -4.54687,11.89453 -8.09766,17.17969c-1.10156,1.6875 -2.32031,3.30469 -3.63281,4.83984c-5.90625,7.23047 -13.58203,12.17578 -21.92578,12.17578c-8.34375,0 -16.01953,-4.94531 -22.07812,-12.17578c-1.3125,-1.53515 -2.53125,-3.15234 -3.63281,-4.83984c-3.55078,-5.28516 -6.28125,-11.07422 -8.09766,-17.17969zM89.51953,168h-80.51953c-1.65234,0 -3,-1.34766 -3,-3v-21.23437c0,-11.77734 6.28125,-22.66406 16.46484,-28.57031l28.26563,-16.3711c7.25391,8.90625 16.76953,15.17578 27.26953,15.17578c10.5,0 20.01563,-6.26953 27.26953,-15.17578l11.28516,6.53906l-3.2461,2.00391c-4.18359,2.58984 -5.51953,8.05078 -3,12.26953l10.32422,17.19141zM184.86328,132.48047l-18.59766,29.75391c-0.87891,1.38281 -2.69531,1.80469 -4.08984,0.96094l-17.19141,-10.19531c-2.35547,-1.42969 -5.39062,-1.05469 -7.34766,0.90234l-13.3125,13.3125l-6.42187,0.78516c-2.08594,0.36328 -3.67969,2.0625 -3.90234,4.17188l-0.69141,4.82813l-4.86328,0.65625c-2.08594,0.28125 -3.73828,1.91016 -4.04297,3.99609l-0.45703,3.17578l-1.25391,1.11328h-12.69141v-9.92578l35.01563,-35.01562c1.93359,-1.94531 2.30859,-4.95703 0.89063,-7.32422l-10.40625,-17.12109c-0.83203,-1.40625 -0.39844,-3.22266 0.98438,-4.08985l6,-3.71484l5.73047,-3.57422l18,-11.30859c0.48047,-0.29297 1.03125,-0.44531 1.59375,-0.44531c0.79688,-0.01172 1.57031,0.30469 2.13281,0.86719l34.5,34.47656c0.98438,0.98438 1.16016,2.53125 0.42188,3.71484z" fill="#8d6c9f"></path><path d="M173.69531,128.07422l-1.34766,-1.35937l-21.69141,-21.71484c-1.96875,-1.96875 -5.03906,-2.32031 -7.40625,-0.84375l-1.13672,0.72656l-4.65234,3c-0.36328,0.23438 -0.71485,0.5039 -1.01953,0.80859c-0.53906,0.52734 -0.98437,1.14844 -1.28906,1.82813c-0.17578,0.36328 -0.30469,0.75 -0.38672,1.13672c-0.35156,1.57031 -0.07031,3.21094 0.80859,4.55859l9.86719,15.36328c0.43359,0.63281 0.98438,1.17188 1.61719,1.59375l15.36328,9.86719c0.96094,0.62109 2.08594,0.96094 3.23438,0.96094c0.44531,0.04688 0.89063,0.04688 1.32422,0c0.63281,-0.15234 1.24219,-0.39844 1.80469,-0.75l0.65625,-0.44531c0.59766,-0.41016 1.13672,-0.91406 1.55859,-1.5l1.88672,-3.30469l1.65235,-2.63672c1.47656,-2.36719 1.125,-5.4375 -0.84375,-7.41797zM169.28906,132.59766l-3.44531,5.40234l-15.36328,-9.86719l-9.86719,-15.36328l5.78906,-3.63281l5.48438,5.4961l17.55469,17.54297z" fill="#8d6c9f"></path></g></g><g stroke="none"><g id="Layer_1"><circle cx="51" cy="51" transform="scale(3,3)" r="12" fill="#0f0"></circle><path d="M171,150h-15v-15c0,-1.656 -1.344,-3 -3,-3c-1.656,0 -3,1.344 -3,3v15h-15c-1.656,0 -3,1.344 -3,3c0,1.656 1.344,3 3,3h15v15c0,1.656 1.344,3 3,3c1.656,0 3,-1.344 3,-3v-15h15c1.656,0 3,-1.344 3,-3c0,-1.656 -1.344,-3 -3,-3z" fill="#f9efde"></path><path d="M153,192c-21.504,0 -39,-17.496 -39,-39c0,-21.504 17.496,-39 39,-39c21.504,0 39,17.496 39,39c0,21.504 -17.496,39 -39,39zM153,120c-18.195,0 -33,14.805 -33,33c0,18.195 14.805,33 33,33c18.195,0 33,-14.805 33,-33c0,-18.195 -14.805,-33 -33,-33z" fill="#8d6c9f"></path></g></g><path d="M114,192v-78h78v78z" id="overlay-drag" fill="#ff0000" stroke="none" opacity="0"></path></g></svg>