<svg version="1.1" xmlns="http://www.w3.org/2000/svg" xmlns:xlink="http://www.w3.org/1999/xlink" viewBox="0 0 192 192"><g fill="none" fill-rule="nonzero" stroke="none" stroke-width="1" stroke-linecap="butt" stroke-linejoin="miter" stroke-miterlimit="10" stroke-dasharray="" stroke-dashoffset="0" font-family="none" font-weight="none" font-size="none" text-anchor="none" style="mix-blend-mode: normal"><path d="M0,192v-192h192v192z" fill="none"></path><g id="Слой_1" fill="#ffffff"><path d="M147,18h-102c-4.962,0 -9,4.038 -9,9v12v9v117c0,4.962 4.035,9 9,9h102c4.962,0 9,-4.038 9,-9v-117v-9v-12c0,-4.962 -4.038,-9 -9,-9zM45,24h102c1.656,0 3,1.344 3,3v3.552c0,-0.336 -1.944,-0.552 -3,-0.552h-102c-1.056,0 -3,0.216 -3,0.552v-3.552c0,-1.656 1.344,-3 3,-3zM147,168h-21v-21c0,-1.656 1.344,-3 3,-3h21v21c0,1.656 -1.347,3 -3,3zM150,138h-21c-4.962,0 -9,4.038 -9,9v21h-75c-1.656,0 -3,-1.344 -3,-3v-117v-9c0,-1.656 1.344,-3 3,-3h102c1.656,0 3,1.344 3,3v9z"></path><path d="M69.003,70.761l-9.882,-9.882l-4.242,4.242l9.882,9.882c1.167,1.17 2.7,1.752 4.236,1.752c1.536,0 3.072,-0.582 4.242,-1.752l20.382,-20.382l-4.242,-4.242z"></path><rect x="34" y="18" transform="scale(3,3)" width="12" height="2"></rect><rect x="34" y="22" transform="scale(3,3)" width="12" height="2"></rect><path d="M69.003,118.761l-9.882,-9.882l-4.242,4.242l9.882,9.882c1.167,1.17 2.7,1.752 4.236,1.752c1.536,0 3.072,-0.582 4.242,-1.752l20.382,-20.382l-4.242,-4.242z"></path><rect x="34" y="34" transform="scale(3,3)" width="12" height="2"></rect><rect x="34" y="38" transform="scale(3,3)" width="12" height="2"></rect><path d="M144,159c0,1.656 -1.344,3 -3,3h-6c-1.656,0 -3,-1.344 -3,-3v-6c0,-1.656 1.344,-3 3,-3h6c1.656,0 3,1.344 3,3z"></path></g></g></svg>